<?xml version="1.0" encoding="UTF-8"?>
<svg xmlns="http://www.w3.org/2000/svg" version="1.0" width="168px" height="210px" viewBox="0 0 168 210" preserveAspectRatio="xMidYMid meet" style="background-color:transparent;">
 <g fill="none">
  <path d="M0 105 l0 -105 84 0 84 0 0 105 0 105 -84 0 -84 0 0 -105z m91 101 c0 -0.5 1.2 -1 2.8 -1 5.6 -0.1 14.4 -2.9 23.2 -7.6 24.7 -13.1 40.3 -40.5 38.9 -68.6 -0.4 -6.1 -0.9 -8.3 -3.1 -11.5 -4.9 -7.4 -4.5 -7.4 -67.9 -7.1 -54 0.3 -55.5 0.4 -59.4 2.4 -6.6 3.5 -8 7 -7.9 19.9 0.1 14.3 1.5 21 7.2 32.3 7.7 15.3 17.7 25.6 32.1 33.1 7.2 3.7 18.4 7.1 23.7 7.1 1.3 0 2.4 0.5 2.4 1 0 0.6 1.8 1 4 1 2.2 0 4 -0.4 4 -1z m57.9 -114.9 c5.1 -3.6 7.5 -10 6.7 -17.5 -1.7 -15.3 -10.1 -33.3 -20.5 -43.7 -18.1 -18 -44 -25.6 -65.1 -19 -21 6.5 -35.6 19 -45.9 39.3 -3.5 6.8 -4.6 10.4 -5.8 18.7 -1.4 9.5 -1.4 10.7 0.2 14.8 1.3 3.4 2.9 5.2 6.4 7.4 l4.6 2.9 58 -0.2 58 -0.3 3.4 -2.4z"/>
 </g>
 <g fill="#daa045">
  <path d="M51.3 81.7 l-3.8 -3.5 0 -8.5 c0 -7.6 0.3 -8.8 2.4 -11.1 6.6 -7.1 21.5 -5.6 25.9 2.5 0.8 1.5 1.2 5.1 1 9.7 -0.3 6.6 -0.6 7.5 -3.6 10.4 -2.9 3 -3.8 3.3 -10.6 3.6 -7.3 0.4 -7.5 0.4 -11.3 -3.1z"/>
  <path d="M100.3 81.6 c-3.6 -3.3 -3.8 -3.7 -4.1 -10.8 -0.4 -11.2 3.2 -15.7 13.3 -16.6 6.5 -0.5 10.6 0.9 14 5 2.2 2.6 2.5 3.9 2.5 10.5 0 7.4 -0.1 7.6 -3.9 11.4 -3.8 3.8 -4 3.9 -11 3.9 -6.7 0 -7.3 -0.2 -10.8 -3.4z"/>
 </g>
 <g fill="#625fc5">
  <path d="M21.9 94.1 c-7.8 -4.9 -9.2 -11.1 -6.5 -29.1 3.2 -21.2 18.7 -41.9 39.2 -52.3 10.7 -5.4 18.9 -7.2 32.4 -7.1 11.3 0 13.4 0.4 21.9 3.3 28.2 9.5 47.7 34.7 49.8 64.3 1.1 15.7 -3.9 22.8 -16.5 23.6 l-6.5 0.5 0.7 -8.9 c1.3 -16.7 -3.8 -30.1 -15.9 -41.9 -6.2 -6 -8.7 -7.6 -16.6 -10.9 -8.2 -3.4 -10.4 -3.9 -17.4 -3.9 -6.5 0 -9.2 0.5 -14.5 2.7 -3.6 1.5 -8.1 3.2 -10.2 3.8 -2.2 0.6 -3.8 1.8 -4.1 2.9 -0.3 1.1 -1.4 1.9 -2.6 1.9 -1.2 0 -2.1 0.6 -2.1 1.3 0 0.6 -2.1 3.4 -4.5 6.1 -2.5 2.7 -4.5 5.3 -4.5 5.8 0 0.6 -0.8 2.2 -1.8 3.6 -4 5.8 -5.7 14 -5.4 26 l0.2 11.2 -5.3 0 c-4.1 0 -6.3 -0.6 -9.8 -2.9z"/>
 </g>
 <g fill="#26416f">
  <path d="M78 208.4 c-16.9 -3.2 -27.3 -7.7 -37.5 -16.4 -8.3 -7 -13.3 -13.5 -18.7 -24.2 -5.9 -11.9 -7.2 -18 -7.3 -35.3 0 -16.2 1.1 -19.3 8 -22.9 3.9 -2.1 5.3 -2.1 62.4 -2.4 66.7 -0.3 66 -0.4 70.9 7.1 2.4 3.6 2.7 5.1 3 14.6 0.9 24.8 -6 43 -22.3 59.3 -8.2 8.2 -21.4 16 -31.3 18.4 -6 1.5 -23 2.6 -27.2 1.8z"/>
  <path d="M33.9 94.3 c0 -1.6 -0.4 -7 -0.7 -12.1 -0.4 -5 -0.4 -9.2 -0.1 -9.2 0.6 0 2.9 -8.1 3.2 -11.4 0.1 -1.1 1.2 -3.1 2.5 -4.5 1.2 -1.3 2 -3.1 1.8 -3.8 -0.3 -0.7 -0.1 -1.3 0.5 -1.3 0.6 0 0.7 -0.4 0.4 -1 -0.3 -0.5 0 -1 0.7 -1 1.5 0 7.8 -7.3 7.8 -8.9 0 -0.6 0.9 -1.1 2.1 -1.1 1.2 0 2.3 -0.8 2.6 -1.9 0.3 -1.2 1.9 -2.3 4.1 -2.9 5 -1.4 14.6 -5.5 15 -6.5 0.2 -0.4 1.9 -0.5 3.8 -0.1 2 0.4 3.4 0.2 3.4 -0.4 0 -0.6 2 -0.8 5.3 -0.5 2.8 0.3 6.8 0.7 8.7 0.9 1.9 0.1 3.6 0.3 3.8 0.5 0.1 0.1 0.5 0.2 1 0.4 0.4 0.1 3 1.2 5.7 2.4 2.8 1.3 5.5 2.4 6.1 2.5 2.2 0.4 6.7 3.9 12.9 10 12.2 12.2 17.2 28 14.9 47.4 l-0.7 5.2 -52.3 0 -52.4 0 -0.1 -2.7z m36.5 -16.2 c2.7 -2.7 3.1 -3.8 3.1 -8.5 0 -4.4 -0.5 -5.9 -2.4 -8 -5.2 -5.5 -13 -5.5 -18.2 0 -1.9 2.1 -2.4 3.6 -2.4 8.1 0 5.1 0.3 5.7 3.9 9 3.5 3.2 4.2 3.5 8.3 3 3.3 -0.3 5.4 -1.3 7.7 -3.6z m48.7 0 c3.4 -3.4 3.9 -4.5 3.9 -8.4 0 -8.2 -7.4 -14.1 -14.9 -11.9 -6 1.9 -8.6 5.4 -8.6 11.9 0 5 0.3 5.7 3.7 8.9 3 2.7 4.6 3.4 7.9 3.4 3.5 0 4.8 -0.6 8 -3.9z"/>
 </g>
</svg>