<?xml version="1.0" encoding="UTF-8"?>
<svg xmlns="http://www.w3.org/2000/svg" version="1.0" width="365px" height="146px" viewBox="0 0 365 146" preserveAspectRatio="xMidYMid meet" style="background-color:transparent;">
 <g fill="none">
  <path d="M0 73 l0 -73 182.5 0 182.5 0 0 73 0 73 -182.5 0 -182.5 0 0 -73z m71.5 65.6 c10.2 -2.1 17 -5.9 24.4 -13.3 9.8 -10 14.1 -19.9 14.1 -32.6 0 -6.5 -0.2 -7.1 -3.4 -10.3 l-3.4 -3.4 -37.7 0 c-36.4 0 -37.8 0.1 -40.6 2.1 -4 2.8 -5.1 7.8 -3.9 17.2 2.3 18.6 16.7 34.8 35 39.6 9 2.4 8.1 2.3 15.5 0.7z m125.5 -84.8 c1.7 -0.3 1.7 -0.5 -0.6 -3.1 l-2.4 -2.8 0.2 11.8 c0.2 10.7 0.2 11 0.5 3.1 0.3 -7.6 0.6 -8.7 2.3 -9z m37.7 0 c-0.2 -3.5 -0.3 -0.9 -0.3 5.7 0 6.6 0.1 9.4 0.3 6.3 0.2 -3.2 0.2 -8.6 0 -12z m20 0 c-0.2 -3.5 -0.3 -0.9 -0.3 5.7 0 6.6 0.1 9.4 0.3 6.3 0.2 -3.2 0.2 -8.6 0 -12z m47.4 13.5 c-0.4 -2.8 -0.6 -3.2 -0.9 -1.5 -0.3 2.2 0.3 5.2 1.1 5.2 0.1 0 0.1 -1.7 -0.2 -3.7z m-87.3 -8.5 c-0.2 -10.1 -0.2 -10.4 -0.5 -3.1 -0.3 7.4 -0.6 8.2 -2.4 8.5 -2.1 0.3 -2.1 0.3 0.1 3.1 1.2 1.5 2.3 2.7 2.6 2.7 0.2 0 0.3 -5.1 0.2 -11.2z m56.3 -5 c2 -0.3 2 -0.4 -0.5 -2.7 l-2.6 -2.4 0.2 10.9 c0.2 10.1 0.2 10.3 0.5 2.7 0.3 -7.3 0.6 -8.2 2.4 -8.5z m17.7 5 c-0.2 -10.2 -0.2 -10.5 -0.5 -3 -0.4 7.5 -0.6 8.2 -2.4 8.2 -2 0 -2 0 0.1 3 1.2 1.7 2.3 3 2.6 3 0.2 0 0.3 -5.1 0.2 -11.2z m-183.7 5.9 c4.7 -3.1 5.6 -6.3 4 -14 -3.8 -18.6 -19.3 -33.8 -38.2 -37.5 -21.5 -4.2 -47.8 17.1 -49.6 40.1 -0.5 5.7 -0.3 6.5 2.1 9.4 1.5 1.8 3.7 3.4 4.9 3.6 1.2 0.2 18.2 0.5 37.8 0.6 35.5 0.1 35.6 0.1 39 -2.2z m60.6 -12.4 c-0.3 -1 -0.5 -0.2 -0.5 1.7 0 1.9 0.2 2.7 0.5 1.8 0.2 -1 0.2 -2.6 0 -3.5z"/>
 </g>
 <g fill="#243f72">
  <path d="M53 140.9 c-19 -4.9 -32.8 -21.1 -35.2 -41 -1.4 -11.9 -0.5 -17.5 3.4 -21.1 l3 -2.8 41 0 41 0 3.4 3.4 3.4 3.4 0 9.9 c0 15.9 -3.6 24.9 -14.1 35.6 -7.4 7.4 -14.2 11.2 -24.4 13.3 -8.1 1.8 -12.7 1.6 -21.5 -0.7z"/>
  <path d="M137 73.3 c-3.3 -1.2 -3.9 -2.3 -2.8 -4.9 0.8 -1.7 1.6 -2.3 2.7 -1.8 5.1 2.2 9.1 2.7 11.5 1.6 4.4 -2 3.2 -4 -3.3 -5.8 -6.6 -1.9 -7.1 -2.5 -7.1 -11.2 0 -4.7 0.3 -5.3 2.6 -6.2 3.4 -1.3 8.1 -1.3 12.1 0.2 3.6 1.3 3.9 1.9 2.3 4.9 -0.9 1.5 -1.5 1.7 -3 0.9 -2.7 -1.4 -9.6 -1.2 -10.9 0.3 -1.3 1.6 0.9 4 4.7 5.1 1.2 0.4 2.2 1.2 2.2 1.7 0 0.5 0.9 0.9 2 0.9 1.6 0 2 0.7 2 3.5 0 1.9 0.5 3.5 1 3.5 0.6 0 1 -0.7 1 -1.5 0 -0.8 0.9 -1.5 2 -1.5 3.1 0 2.6 4.6 -0.9 8.1 -2.7 2.7 -3.5 2.9 -9.8 2.8 -3.7 0 -7.5 -0.3 -8.3 -0.6z"/>
  <path d="M182 73.1 c0 -0.7 -2.8 -1.1 -7.5 -1.1 l-7.5 0 0 -2.9 c0 -1.6 -0.7 -3.6 -1.5 -4.5 -0.8 -0.8 -1.5 -3.1 -1.5 -5 l0 -3.6 9.5 0 9.5 0 0 3 c0 2.9 0 2.9 -6.7 3.2 -6.6 0.3 -6.8 0.4 -7.1 3.1 l-0.3 2.7 8.6 0 8.6 0 -0.3 2.7 c-0.3 2.6 -3.8 4.8 -3.8 2.4z"/>
  <path d="M210.5 72 c-1.6 -1.8 -1.6 -2 -0.2 -2 1.3 0 1.7 -0.9 1.7 -3.5 0 -3.2 0.2 -3.5 3 -3.5 3 0 3 0.1 3 5.5 0 5.4 -0.1 5.5 -2.8 5.5 -1.6 0 -3.7 -0.9 -4.7 -2z"/>
  <path d="M231.2 61 c0.6 -15 1.2 -16 8.2 -16 4.2 0 4.6 0.2 4.6 2.4 0 1.9 -0.6 2.5 -2.7 2.8 -2.5 0.3 -2.8 0.7 -3.1 4.6 -0.2 2.8 -0.8 4.2 -1.8 4.2 -0.8 0 -1.4 1 -1.4 2.5 0 1.6 0.6 2.5 1.5 2.5 1.1 0 1.5 1.2 1.5 5 l0 5 -3.6 0 -3.7 0 0.5 -13z"/>
  <path d="M265 70.6 c0 -2.9 0.4 -3.6 2 -3.6 1.1 0 2 0.7 2 1.5 0 0.8 0.7 1.5 1.6 1.5 3.1 0 1 3.5 -2.4 3.8 -3.1 0.3 -3.2 0.2 -3.2 -3.2z"/>
  <path d="M284.7 72.2 c-2.1 -2.3 -2.1 -3.2 0 -3.2 1.4 0 1.5 -1.2 1 -10.9 -0.7 -12 0.2 -14.9 4.1 -13.7 2.1 0.7 2.2 1.2 2.2 15.2 l0 14.4 -2.8 0 c-1.6 0 -3.6 -0.8 -4.5 -1.8z"/>
  <path d="M310.8 72.3 l-7.8 -0.4 0 -3.4 c0 -3.6 1.3 -4.7 2.4 -2 0.4 1.2 2.4 1.5 8.6 1.5 7.9 0 8 0 8 2.5 0 1.8 -0.5 2.4 -1.7 2.3 -1 -0.1 -5.3 -0.4 -9.5 -0.5z"/>
  <path d="M339 70 c0 -1.6 0.7 -2 3.5 -2 2.8 0 3.5 0.4 3.5 2 0 1.6 -0.7 2 -3.5 2 -2.8 0 -3.5 -0.4 -3.5 -2z"/>
  <path d="M26.2 69.1 c-1.1 -0.6 -1.1 -1.7 -0.3 -4.9 0.7 -2.3 0.9 -6.5 0.5 -9.6 -0.4 -3.6 -0.3 -5.6 0.3 -5.6 1 0 3.7 -6.5 5 -11.7 0.3 -1.3 1.1 -2.3 1.7 -2.3 1.6 0 7.6 -6.2 7.6 -7.8 0 -0.7 0.8 -1.2 1.8 -1.2 0.9 -0.1 4.2 -0.9 7.2 -2 6.3 -2.2 22.4 -2.7 28.1 -0.9 10 3.2 17.5 9.4 22.2 18.3 1.7 3.4 2.2 6.3 2.5 16.4 l0.4 12.2 -37.8 0 c-20.9 0 -38.5 -0.4 -39.2 -0.9z m25.1 -14.5 c3.1 -2.4 1 -7.2 -2.9 -6.4 -3.1 0.6 -4 3.4 -2 5.7 2.2 2.4 2.5 2.5 4.9 0.7z m33.4 -1.3 c1.3 -1.9 1.2 -2.4 -0.6 -4.2 -3.7 -3.7 -8.4 0.6 -5.4 4.8 1.8 2.6 4 2.4 6 -0.6z"/>
  <path d="M194 57.5 c0 -5.4 0 -5.5 2.9 -5.5 5 0 6.1 0.9 6.1 5.1 0 4.4 -1.1 5 -3.4 1.7 -1.6 -2.2 -1.6 -2.2 -1.6 1 0 2.5 -0.4 3.2 -2 3.2 -1.8 0 -2 -0.7 -2 -5.5z"/>
  <path d="M265 53 c0 -9 0 -9 2.5 -9 2.7 0 4.8 3.1 2.7 3.8 -0.8 0.2 -1.2 2.9 -1.2 7.3 0 6.2 -0.2 6.9 -2 6.9 -1.9 0 -2 -0.7 -2 -9z"/>
  <path d="M302 52.5 c0 -3.3 -0.4 -4.5 -1.5 -4.5 -0.8 0 -1.5 -0.8 -1.5 -1.8 0 -1.7 1 -1.8 10.8 -1.8 l10.7 0.1 0.3 2.7 0.3 2.7 -7.8 0.3 c-7.6 0.3 -7.8 0.3 -8 3 -0.1 2 0.3 2.8 2 3.1 1.3 0.3 0.6 0.5 -1.5 0.6 l-3.8 0.1 0 -4.5z"/>
  <path d="M166 51 c0 -1.6 -0.4 -3 -1 -3 -0.5 0 -1 -0.8 -1 -1.7 0 -2.2 5.2 -2.8 14.8 -1.8 5.7 0.6 6.2 0.8 6.2 3.1 0 2.3 -0.2 2.4 -7.6 2.4 -6.7 0 -7.6 0.2 -8.1 2 -0.8 3.2 -3.3 2.4 -3.3 -1z"/>
 </g>
 <g fill="#1f365f">
  <path d="M137.4 72.5 c-0.4 -0.8 -1 -1.2 -1.5 -0.9 -1.9 1.1 -2.8 -0.7 -1.7 -3.1 1.2 -2.8 1.9 -3 3.5 -1.4 1.9 1.9 11.4 1.7 12.6 -0.2 0.8 -1.3 0.7 -2.1 -0.6 -3.3 -0.9 -0.9 -1.9 -1.7 -2.2 -1.6 -2 0.1 -2.5 -0.2 -2.5 -1.5 0 -0.8 -0.4 -1.5 -1 -1.5 -0.5 0 -1 0.5 -1 1 0 1.9 -4.1 1 -6.5 -1.5 -3.3 -3.2 -3.3 -7.8 0 -11 1.3 -1.4 3.2 -2.6 4.2 -2.6 1 -0.1 3.4 -0.2 5.3 -0.4 4.7 -0.3 10 1.3 10 3.1 0 0.8 -0.9 1.4 -2 1.4 -1.1 0 -2 0.6 -2 1.3 0 0.7 -0.7 0.4 -1.5 -0.7 -0.8 -1.1 -1.5 -1.4 -1.5 -0.8 0 1.5 -3.6 1.6 -4.5 0.2 -1.2 -1.9 -3.3 -1 -3.8 1.6 -0.6 3.2 1.3 5.1 6.1 6 7.6 1.4 11.6 4.9 10.9 9.6 -0.3 1.4 -1.3 2.5 -2.8 2.8 -1.4 0.3 -2.4 1.3 -2.4 2.3 0 1.8 -0.6 2 -3.2 1 -0.9 -0.4 -1.9 -0.1 -2.1 0.5 -0.5 1.7 -4.2 1.5 -4.2 -0.3 0 -0.9 -0.9 -1.5 -2.1 -1.5 -1.5 0 -1.9 0.5 -1.5 1.5 0.3 0.8 0.1 1.5 -0.5 1.5 -0.5 0 -1.2 -0.7 -1.5 -1.5z"/>
  <path d="M162.9 73.8 c-0.4 -1.1 -0.6 -27.4 -0.3 -28.3 0.3 -0.7 4 -1.1 11.2 -1 9.9 0.1 10.7 0.3 11 2.2 0.3 1.9 0 1.9 -4.5 1.2 -2.6 -0.4 -6.3 -0.8 -8 -0.8 -3.2 -0.1 -3.3 0 -3.3 4.4 0 4.9 0.1 4.9 7.8 4.5 2.8 -0.1 3.2 0.2 3.2 2.4 0 3 -1.7 4.3 -2.3 1.9 -0.4 -1.7 -0.5 -1.7 -0.6 0 -0.1 2.2 -4.6 2.3 -6.7 0.2 -1.8 -1.7 -3.4 -2 -3.4 -0.5 0 0.6 0.4 1 0.9 1 0.6 0 1.1 1.7 1.3 3.8 l0.3 3.7 7.4 0.2 c7.2 0.2 9.6 1.2 8.8 3.8 -0.3 0.9 -22.5 2.1 -22.8 1.3z"/>
  <path d="M191 59.5 l0 -14.5 3.3 0.1 c2.8 0 4 1 9.7 8.2 l6.5 8.2 0.3 -8.2 0.3 -8.3 3.4 0 3.5 0 0 10.5 c0 9.3 -0.2 10.5 -1.7 10.6 -1.5 0 -1.5 0.2 0.2 0.9 1.7 0.7 1.7 0.9 0.3 0.9 -1.2 0.1 -1.8 0.9 -1.8 2.6 0 4.6 -3.4 2.9 -9.7 -4.7 -3.3 -4 -5.8 -7.9 -5.5 -8.7 0.3 -0.8 0 -1.1 -0.6 -0.7 -0.6 0.3 -1.2 0 -1.5 -0.6 -0.2 -0.7 -0.2 3.1 0.1 8.5 l0.4 9.7 -3.6 0 -3.6 0 0 -14.5z"/>
  <path d="M231.2 65.6 c0 -4.4 0 -9.8 -0.1 -11.8 l-0.1 -3.8 -4.5 0 c-4.3 0 -4.5 -0.1 -4.5 -2.9 l0 -2.8 12.3 0.2 c15 0.3 13.9 0 13.5 2.8 -0.2 1.7 -1.1 2.3 -3.5 2.5 -1.9 0.2 -3.3 -0.1 -3.3 -0.7 0 -0.6 -0.9 -1.1 -2.1 -1.1 -1.1 0 -1.7 0.4 -1.4 1 0.3 0.5 -0.1 1 -0.9 1 -1.1 0 -1.6 0.9 -1.6 3 0 2 0.5 3 1.5 3 1.2 0 1.5 1.3 1.5 5.5 0 4.1 -0.4 5.5 -1.4 5.5 -0.9 0 -1.6 1.2 -1.8 3.2 -0.2 2 -0.9 3.2 -1.9 3.4 -1.4 0.2 -1.6 -1 -1.7 -8z"/>
  <path d="M251.2 59.3 l0.3 -14.8 3 0 3 0 0.3 14.8 0.3 14.7 -3.6 0 -3.6 0 0.3 -14.7z"/>
  <path d="M267.8 73.3 c-2.2 -0.5 -2.2 -0.7 -2.3 -16.3 0 -12.3 0 -12.5 2.3 -12.6 2.2 -0.2 3.6 1.2 14.6 14.1 l2.5 3 0.2 -5.5 c0.1 -3 0 -6.6 -0.1 -7.9 -0.2 -2.2 1.3 -4 3.3 -4.1 0.4 0 0.7 3.6 0.7 7.9 0 5.4 0.4 8.1 1.3 8.4 0.8 0.4 0.8 0.6 -0.2 0.6 -1.1 0.1 -1 0.5 0.5 1.6 1.6 1.3 1.6 1.4 0.2 0.9 -1.6 -0.5 -1.8 0.1 -1.8 4.4 0 4 0.4 5.2 1.8 5.5 0.9 0.3 0.4 0.5 -1.3 0.6 -2.4 0.1 -3.7 -0.8 -6.5 -4.1 -1.9 -2.3 -5.2 -6.1 -7.2 -8.5 l-3.7 -4.3 -0.3 8.2 c-0.3 8.1 -0.7 9 -4 8.1z"/>
  <path d="M298.6 73.2 c-0.6 -1 -0.6 -24 0 -26.7 0.5 -1.8 1.3 -2 10.3 -1.9 5.4 0.1 10.3 0.4 11 0.8 0.6 0.4 1.1 1.7 1.1 2.9 0 1.5 -0.3 1.8 -0.9 0.9 -0.4 -0.7 -3.7 -1.5 -7.8 -1.9 l-7 -0.6 -0.1 4.7 -0.1 4.6 6.9 0 7 0 0 3 0 3 -6.4 0 c-6.9 0 -8.1 0.7 -7.2 4.5 0.6 2.3 1 2.4 7.6 2.2 7.2 -0.1 9.7 0.9 8.7 3.7 -0.5 1.3 -2.6 1.6 -11.6 1.6 -6 0 -11.2 -0.4 -11.5 -0.8z"/>
  <path d="M327 59.6 c0 -13.6 0.1 -14.5 2 -15.1 1.1 -0.3 2.4 -0.3 3 0 0.6 0.4 1 5.4 1 12.1 l0 11.4 4.8 0.1 c2.6 0.1 5.9 0 7.5 -0.1 2.4 -0.1 2.7 0.2 2.7 2.9 l0 3.1 -10.5 0 -10.5 0 0 -14.4z"/>
 </g>
 <g fill="#625dca">
  <path d="M25.5 69.2 c-6.2 -1.3 -8.9 -8.1 -7.4 -18.6 2.8 -20.6 19.1 -37.1 40 -40.6 28 -4.7 54.8 18.2 54.9 46.8 0 5.7 -0.3 6.7 -2.9 9.2 -2.9 3 -7.1 4.6 -9.4 3.7 -1 -0.4 -1.3 -2.7 -1.1 -9.6 0.2 -5.3 0 -9.1 -0.6 -9.1 -0.5 0 -0.7 -0.6 -0.4 -1.4 0.8 -2 -2.8 -8.5 -7.5 -13.7 -3.9 -4.4 -9.2 -7.6 -16 -9.8 -5.3 -1.7 -15.9 -1.3 -22.1 0.9 -3 1.1 -6.4 1.9 -7.4 2 -1.1 0 -1.6 0.3 -1.2 0.7 0.8 0.9 -6.4 8.3 -8.2 8.3 -0.7 0 -1 0.4 -0.7 1 0.3 0.5 -0.1 2 -1 3.2 -0.8 1.3 -2 4 -2.6 6.1 -0.5 2 -1.3 3.7 -1.7 3.7 -0.4 0 -0.6 3.8 -0.5 8.4 0.2 8.8 -0.2 9.6 -4.2 8.8z"/>
 </g>
 <g fill="#dc9f48">
  <path d="M135 97.5 l0 -10.5 6 0 c5.2 0 6.5 0.4 8.7 2.6 2 2 2.4 3.1 1.9 5.7 -0.9 4.3 -1.9 5.1 -7.9 5.7 -5 0.5 -5.2 0.6 -5.5 3.8 -0.2 2 -0.9 3.2 -1.8 3.2 -1.1 0 -1.4 -2 -1.4 -10.5z m12.4 -0.1 c3.7 -3.7 1.2 -7.4 -5.1 -7.4 l-4.3 0 0 4.5 0 4.5 3.9 0 c2.3 0 4.6 -0.7 5.5 -1.6z"/>
  <path d="M156 97.5 l0 -10.5 5.6 0 c5.4 0 9.2 1.2 10.6 3.4 1.5 2.2 0.8 7.3 -1.2 9.1 -1.9 1.8 -1.9 1.8 0 4.5 2.4 3.3 2.5 4 0.6 4 -0.8 0 -2.4 -1.3 -3.6 -2.9 -3.7 -5.2 -9 -4.9 -9 0.5 0 1.5 -0.6 2.4 -1.5 2.4 -1.2 0 -1.5 -1.8 -1.5 -10.5z m12.1 0.5 c2.1 -1.2 2.5 -5 0.7 -6.8 -0.7 -0.7 -2.9 -1.2 -4.9 -1.2 -4 0 -4.9 1.1 -4.9 6.1 0 2.7 0.3 2.9 3.6 2.9 1.9 0 4.4 -0.5 5.5 -1z"/>
  <path d="M179 104.3 c-2.8 -3.2 -3.2 -4.1 -2.7 -7.7 0.4 -2.9 1.5 -4.9 3.8 -7 2.8 -2.5 3.8 -2.8 8.1 -2.4 7.1 0.7 9.8 3.6 9.8 10.4 0 4.6 -0.4 5.5 -3.1 7.8 -2.4 2 -4.1 2.6 -7.9 2.6 -4.3 0 -5.1 -0.4 -8 -3.7z m14 -1.3 c2.1 -2.1 2.6 -6.9 1 -10 -0.5 -1 -2.3 -2.3 -4 -2.9 -7.5 -2.6 -13.3 4.8 -9 11.7 1.7 2.7 2.5 3.2 6 3.2 2.7 0 4.7 -0.7 6 -2z"/>
  <path d="M201.1 107.1 c-0.8 -0.5 -1.1 -1.6 -0.8 -2.5 0.5 -1.3 0.9 -1.4 3.4 -0.1 4.1 2.2 5.3 0.5 5.3 -7.6 l0 -6.8 -3.2 -0.3 c-5.5 -0.5 -4.6 -2.8 1.1 -2.8 l5.1 0 0 9.5 c0 8.3 -0.2 9.6 -1.9 10.5 -2.4 1.2 -7.1 1.3 -9 0.1z"/>
  <path d="M218 97.5 l0 -10.5 7.6 0 c5.5 0 7.5 0.3 7.2 1.2 -0.3 0.7 -1.3 1.3 -2.4 1.4 -1 0 -3.6 0.1 -5.6 0.2 -3.5 0.2 -3.8 0.4 -3.8 3.2 0 3 0 3 5.6 3 7.3 0 7 2.4 -0.4 2.8 -5 0.3 -5.2 0.4 -5.2 3.2 0 2.9 0.1 2.9 6.3 3.2 8.8 0.4 7.7 2.2 -1.5 2.6 l-7.8 0.3 0 -10.6z"/>
  <path d="M240.7 106 c-8.3 -6.6 -3.4 -19 7.6 -19 3.9 0 7.3 2.1 6.3 3.9 -0.5 0.7 -1.2 0.9 -1.9 0.3 -3.5 -2.7 -9.2 -1.7 -11.9 2.2 -1.4 2 -0.8 7.4 1 9.6 2 2.4 8.2 3.1 10.6 1.1 1.1 -0.9 1.6 -0.9 2.2 0 2.3 3.7 -9.5 5.3 -13.9 1.9z"/>
  <path d="M264 99.1 l0 -9 -3.2 -0.3 c-1.7 -0.2 -3.3 -0.9 -3.6 -1.5 -0.3 -1 1.8 -1.3 8.3 -1.3 6.5 0 8.6 0.3 8.3 1.3 -0.3 0.6 -1.9 1.3 -3.6 1.5 l-3.2 0.3 0 9 c0 7.2 -0.3 8.9 -1.5 8.9 -1.2 0 -1.5 -1.7 -1.5 -8.9z"/>
  <path d="M43.9 57.1 c-4.5 -4.5 -3.6 -9.7 2.1 -12.6 2.7 -1.4 3.3 -1.4 6 0 1.6 0.8 3.4 2.5 4.1 3.6 1.7 3.3 0.3 8.2 -3 10.2 -4.1 2.4 -5.8 2.1 -9.2 -1.2z"/>
  <path d="M78.2 59 c-3.2 -1.3 -5.2 -6.6 -4 -10.2 1.4 -4.1 6.1 -6.3 9.9 -4.7 3.5 1.4 4.9 3.6 4.9 7.7 0 5.6 -5.6 9.3 -10.8 7.2z"/>
 </g>
</svg>